<?xml version="1.0" encoding="UTF-8" standalone="no"?>
<svg
   xmlns:dc="http://purl.org/dc/elements/1.1/"
   xmlns:cc="http://creativecommons.org/ns#"
   xmlns:rdf="http://www.w3.org/1999/02/22-rdf-syntax-ns#"
   xmlns:svg="http://www.w3.org/2000/svg"
   xmlns="http://www.w3.org/2000/svg"
   xmlns:sodipodi="http://sodipodi.sourceforge.net/DTD/sodipodi-0.dtd"
   xmlns:inkscape="http://www.inkscape.org/namespaces/inkscape"
   width="256"
   height="256"
   viewBox="0 0 67.733333 67.733333"
   version="1.1"
   id="svg8"
   inkscape:version="1.0.2 (e86c870879, 2021-01-15, custom)"
   sodipodi:docname="icon.svg">
  <defs
     id="defs2">
    <rect
       x="10.48057"
       y="12.92169"
       width="48.933757"
       height="19.910903"
       id="rect842" />
  </defs>
  <sodipodi:namedview
     id="base"
     pagecolor="#ffffff"
     bordercolor="#666666"
     borderopacity="1.0"
     inkscape:pageopacity="0.0"
     inkscape:pageshadow="2"
     inkscape:zoom="1.4"
     inkscape:cx="30.578424"
     inkscape:cy="144.77654"
     inkscape:document-units="mm"
     inkscape:current-layer="g906"
     inkscape:document-rotation="0"
     showgrid="false"
     units="px"
     inkscape:pagecheckerboard="true"
     inkscape:showpageshadow="false"
     inkscape:window-width="1920"
     inkscape:window-height="1017"
     inkscape:window-x="0"
     inkscape:window-y="37"
     inkscape:window-maximized="1" />
  <metadata
     id="metadata5">
    <rdf:RDF>
      <cc:Work
         rdf:about="">
        <dc:format>image/svg+xml</dc:format>
        <dc:type
           rdf:resource="http://purl.org/dc/dcmitype/StillImage" />
        <dc:title />
      </cc:Work>
    </rdf:RDF>
  </metadata>
  <g
     inkscape:label="Layer 1"
     inkscape:groupmode="layer"
     id="layer1">
    <g
       aria-label="RUM"
       transform="scale(0.68794718,1.4536)"
       id="text976"
       style="font-style:normal;font-variant:normal;font-weight:normal;font-stretch:normal;font-size:40.4285px;line-height:1.25;font-family:'SpaceMono Nerd Font';-inkscape-font-specification:'SpaceMono Nerd Font, Normal';font-variant-ligatures:normal;font-variant-caps:normal;font-variant-numeric:normal;font-variant-east-asian:normal;stroke-width:1.01071">
      <g
         id="g906"
         transform="translate(-7.840509e-7,0.37168217)">
        <path
           id="rect916"
           style="fill:none;fill-opacity:1;fill-rule:evenodd;stroke:#000000;stroke-width:2;stroke-linecap:round;stroke-miterlimit:4;stroke-dasharray:none;stroke-dashoffset:9.59999;stroke-opacity:1;paint-order:fill markers stroke"
           d="m 17.451131,1.1653035 c -1.670929,0 -3.19431,2.9069419 -4.366142,7.7194254 -1.235241,0.1986385 -2.158525,1.0464686 -2.158525,2.0680911 0,0.784316 0.545371,1.464514 1.357024,1.828829 -0.962144,5.564562 -1.539958,12.719074 -1.539958,20.544997 0,7.975727 0.600774,15.250028 1.596285,20.858676 -0.843367,0.3575 -1.413351,1.052483 -1.413351,1.855184 0,1.044535 0.965808,1.905344 2.242758,2.078427 1.160031,4.605512 2.651346,7.368542 4.281909,7.368542 h 32.83107 c 1.635498,0 3.130714,-2.780797 4.292245,-7.411434 1.153152,-0.243798 1.997295,-1.05905 1.997295,-2.035535 0,-0.731964 -0.473845,-1.374719 -1.196827,-1.75338 1.006435,-5.622311 1.614889,-12.936112 1.614889,-20.96048 0,-7.877213 -0.585557,-15.072486 -1.559078,-20.652484 0.690695,-0.382141 1.141016,-1.008847 1.141016,-1.721342 0,-0.952396 -0.802034,-1.7533322 -1.911512,-2.0184818 C 53.486813,4.0923265 51.958836,1.1653035 50.282201,1.1653035 Z"
           transform="scale(1.4536,0.68794717)" />
        <path
           style="color:#000000;font-style:normal;font-variant:normal;font-weight:normal;font-stretch:normal;font-size:medium;line-height:1.25;font-family:'SpaceMono Nerd Font';-inkscape-font-specification:'SpaceMono Nerd Font, Normal';font-variant-ligatures:normal;font-variant-position:normal;font-variant-caps:normal;font-variant-numeric:normal;font-variant-alternates:normal;font-variant-east-asian:normal;font-feature-settings:normal;font-variation-settings:normal;text-indent:0;text-align:start;text-decoration:none;text-decoration-line:none;text-decoration-style:solid;text-decoration-color:#000000;letter-spacing:normal;word-spacing:normal;text-transform:none;writing-mode:lr-tb;direction:ltr;text-orientation:mixed;dominant-baseline:auto;baseline-shift:baseline;text-anchor:start;white-space:normal;shape-padding:0;shape-margin:0;inline-size:0;clip-rule:nonzero;display:inline;overflow:visible;visibility:visible;isolation:auto;mix-blend-mode:normal;color-interpolation:sRGB;color-interpolation-filters:linearRGB;solid-color:#000000;solid-opacity:1;vector-effect:none;fill:#000000;fill-opacity:1;fill-rule:evenodd;stroke:none;stroke-linecap:round;stroke-linejoin:miter;stroke-miterlimit:4;stroke-dasharray:none;stroke-dashoffset:9.59999;stroke-opacity:1;paint-order:fill markers stroke;color-rendering:auto;image-rendering:auto;shape-rendering:auto;text-rendering:auto;enable-background:accumulate;stop-color:#000000;stop-opacity:1;opacity:1"
           d="M 13.757812 7.8554688 C 12.7971 7.8554688 11.90871 8.1498189 11.222656 8.6835938 C 10.536602 9.2173686 10.042969 10.038816 10.042969 10.96875 C 10.042969 11.898684 10.536602 12.718178 11.222656 13.251953 C 11.90871 13.785728 12.7971 14.080078 13.757812 14.080078 L 53.974609 14.080078 C 54.935322 14.080078 55.823712 13.785728 56.509766 13.251953 C 57.195819 12.718178 57.689453 11.898684 57.689453 10.96875 C 57.689453 10.038816 57.195819 9.2173686 56.509766 8.6835938 C 55.823712 8.1498189 54.935322 7.8554688 53.974609 7.8554688 L 13.757812 7.8554688 z M 13.757812 9.8554688 L 53.974609 9.8554688 C 54.517748 9.8554688 54.986 10.033957 55.28125 10.263672 C 55.5765 10.493387 55.689453 10.728633 55.689453 10.96875 C 55.689453 11.208867 55.5765 11.444113 55.28125 11.673828 C 54.986 11.903543 54.517748 12.080078 53.974609 12.080078 L 13.757812 12.080078 C 13.214674 12.080078 12.746421 11.903543 12.451172 11.673828 C 12.155922 11.444113 12.042969 11.208867 12.042969 10.96875 C 12.042969 10.728633 12.155922 10.493387 12.451172 10.263672 C 12.746421 10.033957 13.214674 9.8554687 13.757812 9.8554688 z "
           id="rect922-9"
           transform="scale(1.4536,0.68794717)" />
        <rect
           style="fill:none;fill-opacity:1;fill-rule:evenodd;stroke:#000000;stroke-width:2;stroke-linecap:round;stroke-miterlimit:4;stroke-dasharray:none;stroke-dashoffset:9.59999;stroke-opacity:1;paint-order:fill markers stroke"
           id="rect922-6-1"
           width="45.645485"
           height="4.22401"
           x="11.043924"
           y="53.944096"
           rx="2.7145324"
           ry="2.112005"
           transform="scale(1.4536,0.68794717)" />
        <path
           d="m 30.512815,12.397863 q 3.734277,0 5.697517,1.176374 1.976969,1.164245 1.976969,3.347206 0,1.067225 -0.288308,1.831262 -0.274578,0.751909 -0.782549,1.28552 -0.494243,0.521485 -1.19442,0.873184 -0.686447,0.339573 -1.496456,0.582122 0.562886,0.133394 1.125774,0.715526 0.576615,0.582123 1.16696,1.443181 0.590346,0.848929 1.194421,1.891899 0.604073,1.04297 1.208148,2.110195 0.617802,1.067225 1.235605,2.073812 0.631532,1.006587 1.249335,1.794879 0.631532,0.78829 1.263065,1.261266 0.645262,0.472973 1.276792,0.472973 0.27458,0 0.535431,-0.09702 0.274577,-0.09702 0.425596,-0.194036 l 0.288308,0.472976 q -0.274578,0.133394 -0.672717,0.291061 -0.398139,0.169794 -0.93357,0.315316 -0.535428,0.145527 -1.208148,0.242552 -0.65899,0.109152 -1.468998,0.109152 -1.33171,0 -2.402568,-0.654889 -1.070859,-0.642772 -1.839681,-1.819145 -0.782548,-1.212754 -1.537642,-2.546786 -0.755092,-1.334031 -1.510186,-2.668063 -0.741364,-1.334031 -1.496455,-2.607425 -0.741364,-1.273394 -1.496458,-2.389128 l 0.109829,-0.49723 q 0.810008,0.181903 1.400353,-0.08488 0.604076,-0.266807 0.988488,-0.861058 0.384409,-0.606377 0.562885,-1.479561 0.192214,-0.873186 0.192214,-1.8919 0,-0.727654 -0.178479,-1.358286 -0.178479,-0.642762 -0.507971,-1.115736 -0.315767,-0.485102 -0.768821,-0.751909 -0.453056,-0.278932 -1.015945,-0.278932 -0.439326,0 -0.727634,0.121284 -0.27458,0.109151 -0.439326,0.291061 -0.164744,0.169794 -0.233393,0.375953 -0.05492,0.194037 -0.05492,0.375956 v 14.383283 q 0,0.933821 -0.562888,1.358286 -0.549158,0.424464 -1.688661,0.424464 -1.153234,0 -1.702392,-0.424464 -0.549158,-0.424465 -0.549158,-1.358286 V 14.435311 q 0,-0.667017 -1.043399,-0.667017 -0.755094,0 -1.537645,0.20617 -0.768822,0.194036 -1.400354,0.545739 -0.617802,0.33957 -1.015942,0.824675 -0.398139,0.472974 -0.398139,1.030842 0,0.388081 0.109829,0.618505 0.123564,0.230412 0.274578,0.351699 0.151008,0.109151 0.302037,0.145527 0.164744,0.02427 0.233393,0.02427 0.343223,0 0.562888,-0.09702 0.219658,-0.109151 0.39814,-0.218302 0.178478,-0.121284 0.329495,-0.218303 0.164743,-0.109151 0.370682,-0.109151 0.164743,0 0.343222,0.07278 0.192214,0.06064 0.343225,0.206169 0.164743,0.145527 0.27458,0.388082 0.109829,0.230412 0.109829,0.569994 0,0.485104 -0.219658,0.836803 -0.205949,0.351699 -0.549161,0.594249 -0.329495,0.230435 -0.768821,0.351701 -0.425597,0.109151 -0.851196,0.109151 -0.658989,0 -1.194418,-0.194036 -0.5217,-0.20617 -0.892383,-0.557868 -0.370682,-0.351699 -0.562885,-0.824673 -0.192214,-0.472976 -0.192214,-1.006587 0,-1.006587 0.425597,-1.770625 0.425599,-0.776163 1.19442,-1.334031 0.782549,-0.557868 1.867138,-0.921693 1.084586,-0.375956 2.402568,-0.594251 1.317979,-0.218302 2.814435,-0.30319 1.510185,-0.09702 3.130202,-0.09702 z"
           style="font-style:normal;font-variant:normal;font-weight:normal;font-stretch:normal;font-size:10.5833px;line-height:1.25;font-family:'Berkshire Swash';-inkscape-font-specification:'Berkshire Swash, Normal';font-variant-ligatures:normal;font-variant-caps:normal;font-variant-numeric:normal;font-variant-east-asian:normal;white-space:pre;stroke-width:0.79374999;stroke-miterlimit:4;stroke-dasharray:none;stroke:#d63600;stroke-opacity:1"
           id="path846" />
        <path
           d="m 54.607134,27.095213 q 0,0.134375 0.01382,0.298604 0.01381,0.149313 0.06865,0.298602 0.05491,0.134375 0.164743,0.223939 0.109829,0.0896 0.315765,0.0896 0.260837,0 0.466784,-0.194094 0.205949,-0.209031 0.384412,-0.418042 l 0.329495,0.313532 q -0.205949,0.313534 -0.521701,0.701716 -0.302038,0.373255 -0.741364,0.716647 -0.439327,0.343395 -1.002215,0.567347 -0.562885,0.238877 -1.276792,0.238877 -0.604072,0 -1.057129,-0.179158 -0.439326,-0.16422 -0.755094,-0.447906 -0.302035,-0.298604 -0.453054,-0.686787 -0.151008,-0.403114 -0.151008,-0.851019 v -0.671857 q -0.686449,0.806229 -1.441541,1.418366 -0.329495,0.268751 -0.700177,0.522556 -0.370682,0.253813 -0.768821,0.462833 -0.398139,0.194095 -0.823738,0.313533 -0.425597,0.119441 -0.851196,0.119441 -0.823736,0 -1.414081,-0.313534 -0.576616,-0.328463 -0.93357,-0.851018 -0.356952,-0.522556 -0.521701,-1.179481 -0.164744,-0.656927 -0.164744,-1.313853 v -9.241764 q 0,-0.134375 -0.01382,-0.283687 -0.01382,-0.164221 -0.06865,-0.298606 -0.05492,-0.149311 -0.164744,-0.238876 -0.109829,-0.0896 -0.315767,-0.0896 -0.247129,0 -0.466784,0.209031 -0.205923,0.194095 -0.370682,0.403115 l -0.343225,-0.313533 q 0.205949,-0.313533 0.507974,-0.686788 0.315765,-0.388183 0.755091,-0.731574 0.439327,-0.343396 1.002215,-0.567347 0.576615,-0.238876 1.276792,-0.238876 0.604075,0 1.057129,0.179157 0.453056,0.16422 0.755094,0.462837 0.302037,0.283687 0.453056,0.686783 0.151008,0.388186 0.151008,0.836092 v 9.973339 q 0,0.209032 0.05492,0.432974 0.06865,0.209032 0.178479,0.388186 0.123564,0.179157 0.302037,0.298601 0.178479,0.104496 0.425597,0.104496 0.398139,0 0.796281,-0.223968 0.398139,-0.22394 0.727634,-0.522556 0.329495,-0.313532 0.562888,-0.612134 0.247129,-0.298604 0.356952,-0.447905 v -8.719209 q 0,-0.134375 -0.01382,-0.283687 -0.01381,-0.16422 -0.06865,-0.298605 -0.05491,-0.149312 -0.164744,-0.238877 -0.109829,-0.0896 -0.315767,-0.0896 -0.247129,0 -0.466784,0.209031 -0.205923,0.194094 -0.370682,0.403114 L 48.64868,16.42009 q 0.205949,-0.313532 0.507971,-0.686787 0.315767,-0.388184 0.755094,-0.731576 0.439326,-0.343395 1.002214,-0.567346 0.576616,-0.238876 1.276793,-0.238876 0.604075,0 1.057129,0.179157 0.453056,0.164221 0.755094,0.462836 0.302035,0.283688 0.453053,0.686785 0.151009,0.388185 0.151009,0.83609 z"
           style="font-style:normal;font-variant:normal;font-weight:normal;font-stretch:normal;font-size:10.5833px;line-height:1.25;font-family:'Berkshire Swash';-inkscape-font-specification:'Berkshire Swash, Normal';font-variant-ligatures:normal;font-variant-caps:normal;font-variant-numeric:normal;font-variant-east-asian:normal;white-space:pre;stroke-width:0.79374999;stroke-miterlimit:4;stroke-dasharray:none;stroke:#d63600;stroke-opacity:1"
           id="path848" />
        <path
           d="m 69.942382,28.379206 q 0,0.194094 -0.05491,0.462837 -0.05491,0.26875 -0.274578,0.507624 -0.205922,0.238876 -0.631532,0.403114 -0.425597,0.179157 -1.153233,0.179157 -0.727634,0 -1.153231,-0.194094 -0.411869,-0.179157 -0.631532,-0.432974 -0.205923,-0.253813 -0.260864,-0.522555 -0.05492,-0.268751 -0.05492,-0.432974 V 17.793724 q 0,-0.209031 -0.05491,-0.418046 -0.05492,-0.22394 -0.164744,-0.403114 -0.109829,-0.179157 -0.27458,-0.283687 -0.164743,-0.119441 -0.384412,-0.119441 -0.370682,0 -0.727634,0.238877 -0.356952,0.223939 -0.67272,0.522554 -0.302035,0.298606 -0.535428,0.597207 -0.219658,0.298604 -0.315765,0.447905 V 28.37918 q 0,0.194096 -0.05491,0.462837 -0.05492,0.26875 -0.274578,0.507624 -0.205949,0.238877 -0.631532,0.403115 -0.41187,0.179158 -1.139504,0.179158 -0.727634,0 -1.153233,-0.194096 -0.411869,-0.179157 -0.631533,-0.432973 -0.219658,-0.253814 -0.274577,-0.522556 -0.05492,-0.26875 -0.05492,-0.432974 V 16.823237 q 0,-0.432973 -0.192214,-0.746506 -0.178479,-0.328463 -0.617802,-0.328463 -0.233394,0 -0.39814,0.0896 -0.164743,0.0896 -0.356952,0.253813 L 56.529187,15.71843 q 0.315765,-0.283689 0.700177,-0.552419 0.398139,-0.283659 0.851193,-0.492692 0.453056,-0.209032 0.974757,-0.343396 0.521701,-0.134375 1.098316,-0.134375 0.892383,0 1.386624,0.328461 0.494244,0.313535 0.727637,0.761438 0.233393,0.447905 0.274577,0.9406 0.05492,0.477765 0.05492,0.80623 0.64526,-0.791298 1.386624,-1.418366 0.302037,-0.268751 0.658989,-0.522556 0.370683,-0.253813 0.755092,-0.447905 0.384412,-0.209031 0.796281,-0.32846 0.411869,-0.119441 0.823736,-0.119441 0.796281,0 1.359169,0.313533 0.562886,0.313533 0.90611,0.761438 0.343225,0.432974 0.494241,0.92567 0.164744,0.477765 0.164744,0.836088 0.658989,-0.791298 1.386624,-1.418366 0.302037,-0.26875 0.658989,-0.522556 0.356955,-0.253813 0.741364,-0.447905 0.39814,-0.209031 0.796282,-0.32846 0.411866,-0.119441 0.823735,-0.119441 0.796282,0 1.359167,0.328461 0.562888,0.313536 0.906113,0.836092 0.343222,0.522554 0.494241,1.179479 0.164743,0.656929 0.164743,1.313853 v 9.241764 q 0,0.134377 0.01382,0.298606 0.01381,0.149311 0.06865,0.2986 0.05491,0.134376 0.164743,0.22394 0.123565,0.0896 0.315765,0.0896 0.260864,0 0.466787,-0.194094 0.205922,-0.209032 0.384409,-0.418043 l 0.329495,0.313533 q -0.192214,0.313533 -0.507971,0.701716 -0.315765,0.373254 -0.755091,0.716646 -0.4256,0.343395 -1.002215,0.567347 -0.562888,0.238877 -1.276792,0.238877 -0.604075,0 -1.057132,-0.179158 -0.439326,-0.16422 -0.755091,-0.447905 -0.302038,-0.298605 -0.453057,-0.686787 -0.151008,-0.403115 -0.151008,-0.85102 v -9.97334 q 0,-0.209031 -0.05491,-0.418045 -0.05492,-0.223939 -0.164744,-0.403115 -0.09609,-0.179157 -0.260863,-0.283687 -0.164744,-0.11944 -0.38441,-0.11944 -0.370682,0 -0.741364,0.238876 -0.356952,0.223939 -0.672719,0.522556 -0.302038,0.298604 -0.521701,0.597206 -0.219658,0.298604 -0.315765,0.447904 z"
           style="font-style:normal;font-variant:normal;font-weight:normal;font-stretch:normal;font-size:10.5833px;line-height:1.25;font-family:'Berkshire Swash';-inkscape-font-specification:'Berkshire Swash, Normal';font-variant-ligatures:normal;font-variant-caps:normal;font-variant-numeric:normal;font-variant-east-asian:normal;white-space:pre;stroke-width:0.79374999;stroke-miterlimit:4;stroke-dasharray:none;stroke:#d63600;stroke-opacity:1"
           id="path850" />
      </g>
    </g>
  </g>
</svg>
